# MagicaVoxel @ Ephtracy

# group
o 

# material
mtllib cannon1.mtl
usemtl palette

# normals
vn -1 0 0
vn 1 0 0
vn 0 0 1
vn 0 0 -1
vn 0 -1 0
vn 0 1 0

# texcoords
vt 0.845703 0.5
vt 0.990234 0.5
vt 0.994141 0.5

# verts
v 0 1.9 -0.9
v 0 1.9 -1.1
v 0 2.1 -0.9
v 0 2.1 -1.1
v 0.1 1.8 -0.8
v 0.1 1.8 -1.2
v 0.1 1.9 -0.9
v 0.1 1.9 -1.1
v 0.1 2.1 -0.9
v 0.1 2.1 -1.1
v 0.1 2.2 -0.8
v 0.1 2.2 -1.2
v 0.5 2.1 -0.6
v 0.5 2.1 -0.8
v 0.5 2.1 -1.2
v 0.5 2.1 -1.4
v 0.5 2.2 -0.7
v 0.5 2.2 -0.8
v 0.5 2.2 -1.2
v 0.5 2.2 -1.3
v 0.5 2.4 -0.6
v 0.5 2.4 -0.7
v 0.5 2.4 -1.3
v 0.5 2.4 -1.4
v 0.6 1 -0.7
v 0.6 1 -1.3
v 0.6 1.1 -0.7
v 0.6 1.1 -1.3
v 0.6 1.7 -0.6
v 0.6 1.7 -1.4
v 0.6 1.8 -0.8
v 0.6 1.8 -1.2
v 0.6 2.1 -0.6
v 0.6 2.1 -0.8
v 0.6 2.1 -1.2
v 0.6 2.1 -1.4
v 0.6 2.2 -0.7
v 0.6 2.2 -0.8
v 0.6 2.2 -1.2
v 0.6 2.2 -1.3
v 0.6 2.3 -0.7
v 0.6 2.3 -1.3
v 0.6 2.4 -0.6
v 0.6 2.4 -0.7
v 0.6 2.4 -1.3
v 0.6 2.4 -1.4
v 0.6 2.5 -0.6
v 0.6 2.5 -0.7
v 0.6 2.5 -1.3
v 0.6 2.5 -1.4
v 0.7 1 -0.6
v 0.7 1 -0.7
v 0.7 1 -1.3
v 0.7 1 -1.4
v 0.7 1.1 -0.6
v 0.7 1.1 -0.7
v 0.7 1.1 -0.9
v 0.7 1.1 -1.1
v 0.7 1.1 -1.3
v 0.7 1.1 -1.4
v 0.7 1.5 -0.8
v 0.7 1.5 -0.9
v 0.7 1.5 -1.1
v 0.7 1.5 -1.2
v 0.7 1.6 -0.7
v 0.7 1.6 -0.8
v 0.7 1.6 -1.2
v 0.7 1.6 -1.3
v 0.7 1.7 -0.7
v 0.7 1.7 -1.3
v 0.7 2.3 -0.7
v 0.7 2.3 -1.3
v 0.7 2.4 -0.7
v 0.7 2.4 -1.3
v 0.8 1.1 -0.8
v 0.8 1.1 -0.9
v 0.8 1.1 -1.1
v 0.8 1.1 -1.2
v 0.8 1.5 -0.7
v 0.8 1.5 -0.8
v 0.8 1.5 -0.9
v 0.8 1.5 -1.1
v 0.8 1.5 -1.2
v 0.8 1.5 -1.3
v 0.8 1.6 -0.7
v 0.8 1.6 -0.8
v 0.8 1.6 -1.2
v 0.8 1.6 -1.3
v 0.8 2.4 -0.8
v 0.8 2.4 -1.2
v 0.8 2.5 -0.8
v 0.8 2.5 -1.2
v 0.9 1.1 -0.7
v 0.9 1.1 -0.8
v 0.9 1.1 -1.2
v 0.9 1.1 -1.3
v 0.9 1.5 -0.7
v 0.9 1.5 -0.8
v 0.9 1.5 -1.2
v 0.9 1.5 -1.3
v 1.3 2.4 -0.6
v 1.3 2.4 -0.7
v 1.3 2.4 -0.8
v 1.3 2.4 -1.2
v 1.3 2.4 -1.3
v 1.3 2.4 -1.4
v 1.3 2.5 -0.6
v 1.3 2.5 -0.7
v 1.3 2.5 -0.8
v 1.3 2.5 -1.2
v 1.3 2.5 -1.3
v 1.3 2.5 -1.4
v 0.7 2.4 -0.6
v 0.7 2.4 -0.7
v 0.7 2.4 -1.3
v 0.7 2.4 -1.4
v 0.7 2.5 -0.6
v 0.7 2.5 -0.7
v 0.7 2.5 -1.3
v 0.7 2.5 -1.4
v 1.1 1.1 -0.7
v 1.1 1.1 -0.8
v 1.1 1.1 -1.2
v 1.1 1.1 -1.3
v 1.1 1.5 -0.7
v 1.1 1.5 -0.8
v 1.1 1.5 -1.2
v 1.1 1.5 -1.3
v 1.2 1.1 -0.8
v 1.2 1.1 -0.9
v 1.2 1.1 -1.1
v 1.2 1.1 -1.2
v 1.2 1.5 -0.7
v 1.2 1.5 -0.8
v 1.2 1.5 -0.9
v 1.2 1.5 -1.1
v 1.2 1.5 -1.2
v 1.2 1.5 -1.3
v 1.2 1.6 -0.7
v 1.2 1.6 -0.8
v 1.2 1.6 -1.2
v 1.2 1.6 -1.3
v 1.3 1 -0.6
v 1.3 1 -0.7
v 1.3 1 -1.3
v 1.3 1 -1.4
v 1.3 1.1 -0.6
v 1.3 1.1 -0.7
v 1.3 1.1 -0.9
v 1.3 1.1 -1.1
v 1.3 1.1 -1.3
v 1.3 1.1 -1.4
v 1.3 1.5 -0.8
v 1.3 1.5 -0.9
v 1.3 1.5 -1.1
v 1.3 1.5 -1.2
v 1.3 1.6 -0.7
v 1.3 1.6 -0.8
v 1.3 1.6 -1.2
v 1.3 1.6 -1.3
v 1.3 1.7 -0.7
v 1.3 1.7 -1.3
v 1.4 1 -0.7
v 1.4 1 -1.3
v 1.4 1.1 -0.7
v 1.4 1.1 -1.3
v 1.4 1.7 -0.6
v 1.4 1.7 -1.4
v 1.4 2.3 -0.6
v 1.4 2.3 -1.4
v 1.4 2.4 -0.7
v 1.4 2.4 -1.3
v 1.4 2.5 -0.6
v 1.4 2.5 -0.7
v 1.4 2.5 -1.3
v 1.4 2.5 -1.4
v 0.5 2.1 -0.6
v 0.5 2.4 -0.6
v 0.6 1.7 -0.6
v 0.6 2.1 -0.6
v 0.6 2.2 -0.6
v 0.6 2.4 -0.6
v 0.6 2.5 -0.6
v 0.7 1 -0.6
v 0.7 1.1 -0.6
v 0.7 2.2 -0.6
v 0.7 2.3 -0.6
v 0.7 2.4 -0.6
v 0.7 2.5 -0.6
v 1.3 1 -0.6
v 1.3 1.1 -0.6
v 1.3 2.4 -0.6
v 1.3 2.5 -0.6
v 1.4 1.7 -0.6
v 1.4 2.3 -0.6
v 1.4 2.5 -0.6
v 0.6 1 -0.7
v 0.6 1.1 -0.7
v 0.7 1 -0.7
v 0.7 1.1 -0.7
v 0.7 1.6 -0.7
v 0.7 1.7 -0.7
v 0.8 1.5 -0.7
v 0.8 1.6 -0.7
v 0.9 1.1 -0.7
v 0.9 1.5 -0.7
v 1.1 1.1 -0.7
v 1.1 1.5 -0.7
v 1.2 1.5 -0.7
v 1.2 1.6 -0.7
v 1.3 1 -0.7
v 1.3 1.1 -0.7
v 1.3 1.6 -0.7
v 1.3 1.7 -0.7
v 1.4 1 -0.7
v 1.4 1.1 -0.7
v 0.1 1.8 -0.8
v 0.1 2.2 -0.8
v 0.5 2.1 -0.8
v 0.5 2.2 -0.8
v 0.6 1.8 -0.8
v 0.6 2.1 -0.8
v 0.7 1.5 -0.8
v 0.7 1.6 -0.8
v 0.8 1.1 -0.8
v 0.8 1.5 -0.8
v 0.8 1.6 -0.8
v 0.8 2.4 -0.8
v 0.8 2.5 -0.8
v 0.9 1.1 -0.8
v 0.9 1.5 -0.8
v 1.1 1.1 -0.8
v 1.1 1.5 -0.8
v 1.2 1.1 -0.8
v 1.2 1.5 -0.8
v 1.2 1.6 -0.8
v 1.3 1.5 -0.8
v 1.3 1.6 -0.8
v 1.3 2.4 -0.8
v 1.3 2.5 -0.8
v 0 1.9 -0.9
v 0 2.1 -0.9
v 0.1 1.9 -0.9
v 0.1 2.1 -0.9
v 0.7 1.1 -0.9
v 0.7 1.5 -0.9
v 0.8 1.1 -0.9
v 0.8 1.5 -0.9
v 1.2 1.1 -0.9
v 1.2 1.5 -0.9
v 1.3 1.1 -0.9
v 1.3 1.5 -0.9
v 0.5 2.2 -1.3
v 0.5 2.4 -1.3
v 0.6 2.2 -1.3
v 0.6 2.3 -1.3
v 0.6 2.4 -1.3
v 0.6 2.5 -1.3
v 0.7 2.3 -1.3
v 0.7 2.4 -1.3
v 0.7 2.5 -1.3
v 0.5 2.2 -0.7
v 0.5 2.4 -0.7
v 0.6 2.2 -0.7
v 0.6 2.3 -0.7
v 0.6 2.4 -0.7
v 0.6 2.5 -0.7
v 0.7 2.3 -0.7
v 0.7 2.4 -0.7
v 0.7 2.5 -0.7
v 0 1.9 -1.1
v 0 2.1 -1.1
v 0.1 1.9 -1.1
v 0.1 2.1 -1.1
v 0.7 1.1 -1.1
v 0.7 1.5 -1.1
v 0.8 1.1 -1.1
v 0.8 1.5 -1.1
v 1.2 1.1 -1.1
v 1.2 1.5 -1.1
v 1.3 1.1 -1.1
v 1.3 1.5 -1.1
v 0.1 1.8 -1.2
v 0.1 2.2 -1.2
v 0.5 2.1 -1.2
v 0.5 2.2 -1.2
v 0.6 1.8 -1.2
v 0.6 2.1 -1.2
v 0.7 1.5 -1.2
v 0.7 1.6 -1.2
v 0.8 1.1 -1.2
v 0.8 1.5 -1.2
v 0.8 1.6 -1.2
v 0.8 2.4 -1.2
v 0.8 2.5 -1.2
v 0.9 1.1 -1.2
v 0.9 1.5 -1.2
v 1.1 1.1 -1.2
v 1.1 1.5 -1.2
v 1.2 1.1 -1.2
v 1.2 1.5 -1.2
v 1.2 1.6 -1.2
v 1.3 1.5 -1.2
v 1.3 1.6 -1.2
v 1.3 2.4 -1.2
v 1.3 2.5 -1.2
v 0.6 1 -1.3
v 0.6 1.1 -1.3
v 0.7 1 -1.3
v 0.7 1.1 -1.3
v 0.7 1.6 -1.3
v 0.7 1.7 -1.3
v 0.8 1.5 -1.3
v 0.8 1.6 -1.3
v 0.9 1.1 -1.3
v 0.9 1.5 -1.3
v 1.1 1.1 -1.3
v 1.1 1.5 -1.3
v 1.2 1.5 -1.3
v 1.2 1.6 -1.3
v 1.3 1 -1.3
v 1.3 1.1 -1.3
v 1.3 1.6 -1.3
v 1.3 1.7 -1.3
v 1.4 1 -1.3
v 1.4 1.1 -1.3
v 0.5 2.1 -1.4
v 0.5 2.4 -1.4
v 0.6 1.7 -1.4
v 0.6 2.1 -1.4
v 0.6 2.2 -1.4
v 0.6 2.4 -1.4
v 0.6 2.5 -1.4
v 0.7 1 -1.4
v 0.7 1.1 -1.4
v 0.7 2.2 -1.4
v 0.7 2.3 -1.4
v 0.7 2.4 -1.4
v 0.7 2.5 -1.4
v 1.3 1 -1.4
v 1.3 1.1 -1.4
v 1.3 2.4 -1.4
v 1.3 2.5 -1.4
v 1.4 1.7 -1.4
v 1.4 2.3 -1.4
v 1.4 2.5 -1.4
v 0.7 1 -0.6
v 1.3 1 -0.6
v 0.6 1 -0.7
v 0.7 1 -0.7
v 1.3 1 -0.7
v 1.4 1 -0.7
v 0.6 1 -1.3
v 0.7 1 -1.3
v 1.3 1 -1.3
v 1.4 1 -1.3
v 0.7 1 -1.4
v 1.3 1 -1.4
v 0.8 1.5 -0.7
v 0.9 1.5 -0.7
v 1.1 1.5 -0.7
v 1.2 1.5 -0.7
v 0.7 1.5 -0.8
v 0.8 1.5 -0.8
v 0.9 1.5 -0.8
v 1.1 1.5 -0.8
v 1.2 1.5 -0.8
v 1.3 1.5 -0.8
v 0.7 1.5 -0.9
v 0.8 1.5 -0.9
v 1.2 1.5 -0.9
v 1.3 1.5 -0.9
v 0.7 1.5 -1.1
v 0.8 1.5 -1.1
v 1.2 1.5 -1.1
v 1.3 1.5 -1.1
v 0.7 1.5 -1.2
v 0.8 1.5 -1.2
v 0.9 1.5 -1.2
v 1.1 1.5 -1.2
v 1.2 1.5 -1.2
v 1.3 1.5 -1.2
v 0.8 1.5 -1.3
v 0.9 1.5 -1.3
v 1.1 1.5 -1.3
v 1.2 1.5 -1.3
v 0.7 1.6 -0.7
v 0.8 1.6 -0.7
v 1.2 1.6 -0.7
v 1.3 1.6 -0.7
v 0.7 1.6 -0.8
v 0.8 1.6 -0.8
v 1.2 1.6 -0.8
v 1.3 1.6 -0.8
v 0.7 1.6 -1.2
v 0.8 1.6 -1.2
v 1.2 1.6 -1.2
v 1.3 1.6 -1.2
v 0.7 1.6 -1.3
v 0.8 1.6 -1.3
v 1.2 1.6 -1.3
v 1.3 1.6 -1.3
v 0.6 1.7 -0.6
v 1.4 1.7 -0.6
v 0.7 1.7 -0.7
v 1.3 1.7 -0.7
v 0.7 1.7 -1.3
v 1.3 1.7 -1.3
v 0.6 1.7 -1.4
v 1.4 1.7 -1.4
v 0.1 1.8 -0.8
v 0.6 1.8 -0.8
v 0.1 1.8 -1.2
v 0.6 1.8 -1.2
v 0 1.9 -0.9
v 0.1 1.9 -0.9
v 0 1.9 -1.1
v 0.1 1.9 -1.1
v 0.5 2.1 -0.6
v 0.6 2.1 -0.6
v 0.5 2.1 -0.8
v 0.6 2.1 -0.8
v 0.5 2.1 -1.2
v 0.6 2.1 -1.2
v 0.5 2.1 -1.4
v 0.6 2.1 -1.4
v 0.7 1.1 -0.6
v 1.3 1.1 -0.6
v 0.6 1.1 -0.7
v 0.7 1.1 -0.7
v 0.9 1.1 -0.7
v 1.1 1.1 -0.7
v 1.3 1.1 -0.7
v 1.4 1.1 -0.7
v 0.8 1.1 -0.8
v 0.9 1.1 -0.8
v 1.1 1.1 -0.8
v 1.2 1.1 -0.8
v 0.7 1.1 -0.9
v 0.8 1.1 -0.9
v 1.2 1.1 -0.9
v 1.3 1.1 -0.9
v 0.7 1.1 -1.1
v 0.8 1.1 -1.1
v 1.2 1.1 -1.1
v 1.3 1.1 -1.1
v 0.8 1.1 -1.2
v 0.9 1.1 -1.2
v 1.1 1.1 -1.2
v 1.2 1.1 -1.2
v 0.6 1.1 -1.3
v 0.7 1.1 -1.3
v 0.9 1.1 -1.3
v 1.1 1.1 -1.3
v 1.3 1.1 -1.3
v 1.4 1.1 -1.3
v 0.7 1.1 -1.4
v 1.3 1.1 -1.4
v 0 2.1 -0.9
v 0.1 2.1 -0.9
v 0 2.1 -1.1
v 0.1 2.1 -1.1
v 0.5 2.2 -0.7
v 0.6 2.2 -0.7
v 0.1 2.2 -0.8
v 0.5 2.2 -0.8
v 0.6 2.2 -0.8
v 0.1 2.2 -1.2
v 0.5 2.2 -1.2
v 0.6 2.2 -1.2
v 0.5 2.2 -1.3
v 0.6 2.2 -1.3
v 0.6 2.3 -0.7
v 0.7 2.3 -0.7
v 0.6 2.3 -1.3
v 0.7 2.3 -1.3
v 0.5 2.4 -0.6
v 0.6 2.4 -0.6
v 0.7 2.4 -0.6
v 1.3 2.4 -0.6
v 0.5 2.4 -0.7
v 0.6 2.4 -0.7
v 0.7 2.4 -0.7
v 1.3 2.4 -0.7
v 0.8 2.4 -0.8
v 1.3 2.4 -0.8
v 0.8 2.4 -1.2
v 1.3 2.4 -1.2
v 0.5 2.4 -1.3
v 0.6 2.4 -1.3
v 0.7 2.4 -1.3
v 1.3 2.4 -1.3
v 0.5 2.4 -1.4
v 0.6 2.4 -1.4
v 0.7 2.4 -1.4
v 1.3 2.4 -1.4
v 0.6 2.5 -0.6
v 0.7 2.5 -0.6
v 1.3 2.5 -0.6
v 1.4 2.5 -0.6
v 0.6 2.5 -0.7
v 0.7 2.5 -0.7
v 1.3 2.5 -0.7
v 1.4 2.5 -0.7
v 0.8 2.5 -0.8
v 1.3 2.5 -0.8
v 0.8 2.5 -1.2
v 1.3 2.5 -1.2
v 0.6 2.5 -1.3
v 0.7 2.5 -1.3
v 1.3 2.5 -1.3
v 1.4 2.5 -1.3
v 0.6 2.5 -1.4
v 0.7 2.5 -1.4
v 1.3 2.5 -1.4
v 1.4 2.5 -1.4

# faces
f 3/1/1 2/1/1 1/1/1
f 4/1/1 2/1/1 3/1/1
f 7/3/1 6/3/1 5/3/1
f 8/3/1 6/3/1 7/3/1
f 9/3/1 7/3/1 5/3/1
f 10/3/1 6/3/1 8/3/1
f 11/3/1 9/3/1 5/3/1
f 11/3/1 10/3/1 9/3/1
f 12/3/1 6/3/1 10/3/1
f 12/3/1 10/3/1 11/3/1
f 17/2/1 14/2/1 13/2/1
f 18/2/1 14/2/1 17/2/1
f 19/2/1 16/2/1 15/2/1
f 20/2/1 16/2/1 19/2/1
f 21/2/1 17/2/1 13/2/1
f 22/2/1 17/2/1 21/2/1
f 23/2/1 16/2/1 20/2/1
f 24/2/1 16/2/1 23/2/1
f 27/3/1 26/3/1 25/3/1
f 28/3/1 26/3/1 27/3/1
f 31/3/1 30/3/1 29/3/1
f 32/3/1 30/3/1 31/3/1
f 33/3/1 31/3/1 29/3/1
f 34/3/1 31/3/1 33/3/1
f 35/3/1 30/3/1 32/3/1
f 36/3/1 30/3/1 35/3/1
f 41/2/1 38/2/1 37/2/1
f 41/2/1 40/2/1 39/2/1
f 41/2/1 39/2/1 38/2/1
f 42/2/1 40/2/1 41/2/1
f 47/2/1 44/2/1 43/2/1
f 48/2/1 44/2/1 47/2/1
f 49/2/1 46/2/1 45/2/1
f 50/2/1 46/2/1 49/2/1
f 55/3/1 52/3/1 51/3/1
f 56/3/1 52/3/1 55/3/1
f 59/3/1 54/3/1 53/3/1
f 60/3/1 54/3/1 59/3/1
f 62/2/1 58/2/1 57/2/1
f 63/2/1 58/2/1 62/2/1
f 66/2/1 62/2/1 61/2/1
f 66/2/1 64/2/1 63/2/1
f 66/2/1 63/2/1 62/2/1
f 67/2/1 64/2/1 66/2/1
f 69/2/1 66/2/1 65/2/1
f 69/2/1 68/2/1 67/2/1
f 69/2/1 67/2/1 66/2/1
f 70/2/1 68/2/1 69/2/1
f 73/3/1 72/3/1 71/3/1
f 74/3/1 72/3/1 73/3/1
f 80/3/1 76/3/1 75/3/1
f 81/3/1 76/3/1 80/3/1
f 82/3/1 78/3/1 77/3/1
f 83/3/1 78/3/1 82/3/1
f 85/2/1 80/2/1 79/2/1
f 86/2/1 80/2/1 85/2/1
f 87/2/1 84/2/1 83/2/1
f 88/2/1 84/2/1 87/2/1
f 91/3/1 90/3/1 89/3/1
f 92/3/1 90/3/1 91/3/1
f 97/2/1 94/2/1 93/2/1
f 98/2/1 94/2/1 97/2/1
f 99/2/1 96/2/1 95/2/1
f 100/2/1 96/2/1 99/2/1
f 107/2/1 102/2/1 101/2/1
f 108/3/1 103/3/1 102/3/1
f 108/2/1 102/2/1 107/2/1
f 109/3/1 103/3/1 108/3/1
f 110/3/1 105/3/1 104/3/1
f 111/2/1 106/2/1 105/2/1
f 111/3/1 105/3/1 110/3/1
f 112/2/1 106/2/1 111/2/1
f 113/2/2 114/2/2 117/2/2
f 117/2/2 114/2/2 118/2/2
f 115/2/2 116/2/2 119/2/2
f 119/2/2 116/2/2 120/2/2
f 121/2/2 122/2/2 125/2/2
f 125/2/2 122/2/2 126/2/2
f 123/2/2 124/2/2 127/2/2
f 127/2/2 124/2/2 128/2/2
f 129/3/2 130/3/2 134/3/2
f 134/3/2 130/3/2 135/3/2
f 131/3/2 132/3/2 136/3/2
f 136/3/2 132/3/2 137/3/2
f 133/2/2 134/2/2 139/2/2
f 139/2/2 134/2/2 140/2/2
f 137/2/2 138/2/2 141/2/2
f 141/2/2 138/2/2 142/2/2
f 143/3/2 144/3/2 147/3/2
f 147/3/2 144/3/2 148/3/2
f 145/3/2 146/3/2 151/3/2
f 151/3/2 146/3/2 152/3/2
f 149/2/2 150/2/2 154/2/2
f 154/2/2 150/2/2 155/2/2
f 153/2/2 154/2/2 158/2/2
f 155/2/2 156/2/2 158/2/2
f 154/2/2 155/2/2 158/2/2
f 158/2/2 156/2/2 159/2/2
f 157/2/2 158/2/2 161/2/2
f 159/2/2 160/2/2 161/2/2
f 158/2/2 159/2/2 161/2/2
f 161/2/2 160/2/2 162/2/2
f 163/3/2 164/3/2 165/3/2
f 165/3/2 164/3/2 166/3/2
f 167/3/2 168/3/2 169/3/2
f 169/3/2 168/3/2 170/3/2
f 169/2/2 170/2/2 171/2/2
f 171/2/2 170/2/2 172/2/2
f 169/2/2 171/2/2 173/2/2
f 171/3/2 172/3/2 174/3/2
f 173/2/2 171/2/2 174/2/2
f 172/2/2 170/2/2 175/2/2
f 174/3/2 172/3/2 175/3/2
f 175/2/2 170/2/2 176/2/2
f 180/2/3 178/2/3 177/2/3
f 181/2/3 178/2/3 180/2/3
f 182/2/3 178/2/3 181/2/3
f 186/3/3 180/3/3 179/3/3
f 186/3/3 181/3/3 180/3/3
f 186/2/3 183/2/3 182/2/3
f 186/2/3 182/2/3 181/2/3
f 187/2/3 183/2/3 186/2/3
f 188/2/3 183/2/3 187/2/3
f 189/2/3 183/2/3 188/2/3
f 190/3/3 185/3/3 184/3/3
f 191/3/3 185/3/3 190/3/3
f 192/2/3 188/2/3 187/2/3
f 194/3/3 186/3/3 179/3/3
f 194/3/3 187/3/3 186/3/3
f 195/2/3 193/2/3 192/2/3
f 195/3/3 187/3/3 194/3/3
f 195/2/3 192/2/3 187/2/3
f 196/2/3 193/2/3 195/2/3
f 199/3/3 198/3/3 197/3/3
f 200/3/3 198/3/3 199/3/3
f 204/2/3 202/2/3 201/2/3
f 206/2/3 204/2/3 203/2/3
f 207/2/3 206/2/3 205/2/3
f 208/2/3 204/2/3 206/2/3
f 208/2/3 206/2/3 207/2/3
f 209/2/3 204/2/3 208/2/3
f 210/2/3 202/2/3 204/2/3
f 210/2/3 204/2/3 209/2/3
f 213/2/3 202/2/3 210/2/3
f 214/2/3 202/2/3 213/2/3
f 215/3/3 212/3/3 211/3/3
f 216/3/3 212/3/3 215/3/3
f 219/3/3 218/3/3 217/3/3
f 220/3/3 218/3/3 219/3/3
f 221/3/3 219/3/3 217/3/3
f 222/3/3 219/3/3 221/3/3
f 226/2/3 224/2/3 223/2/3
f 227/2/3 224/2/3 226/2/3
f 230/3/3 226/3/3 225/3/3
f 231/3/3 226/3/3 230/3/3
f 234/3/3 233/3/3 232/3/3
f 235/3/3 233/3/3 234/3/3
f 237/2/3 236/2/3 235/2/3
f 238/2/3 236/2/3 237/2/3
f 239/3/3 229/3/3 228/3/3
f 240/3/3 229/3/3 239/3/3
f 243/1/3 242/1/3 241/1/3
f 244/1/3 242/1/3 243/1/3
f 247/2/3 246/2/3 245/2/3
f 248/2/3 246/2/3 247/2/3
f 251/2/3 250/2/3 249/2/3
f 252/2/3 250/2/3 251/2/3
f 255/2/3 254/2/3 253/2/3
f 256/2/3 254/2/3 255/2/3
f 257/2/3 254/2/3 256/2/3
f 259/2/3 258/2/3 257/2/3
f 259/2/3 257/2/3 256/2/3
f 260/2/3 258/2/3 259/2/3
f 261/2/3 258/2/3 260/2/3
f 262/2/4 263/2/4 264/2/4
f 264/2/4 263/2/4 265/2/4
f 265/2/4 263/2/4 266/2/4
f 266/2/4 267/2/4 268/2/4
f 265/2/4 266/2/4 268/2/4
f 268/2/4 267/2/4 269/2/4
f 269/2/4 267/2/4 270/2/4
f 271/1/4 272/1/4 273/1/4
f 273/1/4 272/1/4 274/1/4
f 275/2/4 276/2/4 277/2/4
f 277/2/4 276/2/4 278/2/4
f 279/2/4 280/2/4 281/2/4
f 281/2/4 280/2/4 282/2/4
f 283/3/4 284/3/4 285/3/4
f 285/3/4 284/3/4 286/3/4
f 283/3/4 285/3/4 287/3/4
f 287/3/4 285/3/4 288/3/4
f 289/2/4 290/2/4 292/2/4
f 292/2/4 290/2/4 293/2/4
f 291/3/4 292/3/4 296/3/4
f 296/3/4 292/3/4 297/3/4
f 298/3/4 299/3/4 300/3/4
f 300/3/4 299/3/4 301/3/4
f 301/2/4 302/2/4 303/2/4
f 303/2/4 302/2/4 304/2/4
f 294/3/4 295/3/4 305/3/4
f 305/3/4 295/3/4 306/3/4
f 307/3/4 308/3/4 309/3/4
f 309/3/4 308/3/4 310/3/4
f 311/2/4 312/2/4 314/2/4
f 313/2/4 314/2/4 316/2/4
f 315/2/4 316/2/4 317/2/4
f 316/2/4 314/2/4 318/2/4
f 317/2/4 316/2/4 318/2/4
f 318/2/4 314/2/4 319/2/4
f 314/2/4 312/2/4 320/2/4
f 319/2/4 314/2/4 320/2/4
f 320/2/4 312/2/4 323/2/4
f 323/2/4 312/2/4 324/2/4
f 321/3/4 322/3/4 325/3/4
f 325/3/4 322/3/4 326/3/4
f 327/2/4 328/2/4 330/2/4
f 330/2/4 328/2/4 331/2/4
f 331/2/4 328/2/4 332/2/4
f 329/3/4 330/3/4 336/3/4
f 330/3/4 331/3/4 336/3/4
f 332/2/4 333/2/4 336/2/4
f 331/2/4 332/2/4 336/2/4
f 336/2/4 333/2/4 337/2/4
f 337/2/4 333/2/4 338/2/4
f 338/2/4 333/2/4 339/2/4
f 334/3/4 335/3/4 340/3/4
f 340/3/4 335/3/4 341/3/4
f 337/2/4 338/2/4 342/2/4
f 329/3/4 336/3/4 344/3/4
f 336/3/4 337/3/4 344/3/4
f 342/2/4 343/2/4 345/2/4
f 344/3/4 337/3/4 345/3/4
f 337/2/4 342/2/4 345/2/4
f 345/2/4 343/2/4 346/2/4
f 350/3/5 348/3/5 347/3/5
f 351/3/5 348/3/5 350/3/5
f 353/3/5 350/3/5 349/3/5
f 353/3/5 352/3/5 351/3/5
f 353/3/5 351/3/5 350/3/5
f 354/3/5 352/3/5 353/3/5
f 355/3/5 352/3/5 354/3/5
f 356/3/5 352/3/5 355/3/5
f 357/3/5 355/3/5 354/3/5
f 358/3/5 355/3/5 357/3/5
f 364/2/5 360/2/5 359/2/5
f 365/2/5 360/2/5 364/2/5
f 366/2/5 362/2/5 361/2/5
f 367/2/5 362/2/5 366/2/5
f 369/2/5 364/2/5 363/2/5
f 370/2/5 364/2/5 369/2/5
f 371/2/5 368/2/5 367/2/5
f 372/2/5 368/2/5 371/2/5
f 377/2/5 374/2/5 373/2/5
f 378/2/5 374/2/5 377/2/5
f 381/2/5 376/2/5 375/2/5
f 382/2/5 376/2/5 381/2/5
f 383/2/5 379/2/5 378/2/5
f 384/2/5 379/2/5 383/2/5
f 385/2/5 381/2/5 380/2/5
f 386/2/5 381/2/5 385/2/5
f 391/2/5 388/2/5 387/2/5
f 392/2/5 388/2/5 391/2/5
f 393/2/5 390/2/5 389/2/5
f 394/2/5 390/2/5 393/2/5
f 399/2/5 396/2/5 395/2/5
f 400/2/5 396/2/5 399/2/5
f 401/2/5 398/2/5 397/2/5
f 402/2/5 398/2/5 401/2/5
f 405/3/5 404/3/5 403/3/5
f 406/3/5 404/3/5 405/3/5
f 407/3/5 405/3/5 403/3/5
f 408/3/5 404/3/5 406/3/5
f 409/3/5 407/3/5 403/3/5
f 409/3/5 408/3/5 407/3/5
f 410/3/5 404/3/5 408/3/5
f 410/3/5 408/3/5 409/3/5
f 413/3/5 412/3/5 411/3/5
f 414/3/5 412/3/5 413/3/5
f 417/1/5 416/1/5 415/1/5
f 418/1/5 416/1/5 417/1/5
f 421/2/5 420/2/5 419/2/5
f 422/2/5 420/2/5 421/2/5
f 425/2/5 424/2/5 423/2/5
f 426/2/5 424/2/5 425/2/5
f 427/3/6 428/3/6 430/3/6
f 430/3/6 428/3/6 431/3/6
f 431/3/6 428/3/6 432/3/6
f 432/3/6 428/3/6 433/3/6
f 429/3/6 430/3/6 435/3/6
f 430/3/6 431/3/6 435/3/6
f 435/3/6 431/3/6 436/3/6
f 433/3/6 434/3/6 437/3/6
f 432/3/6 433/3/6 437/3/6
f 437/3/6 434/3/6 438/3/6
f 429/3/6 435/3/6 439/3/6
f 439/3/6 435/3/6 440/3/6
f 438/3/6 434/3/6 441/3/6
f 441/3/6 434/3/6 442/3/6
f 429/3/6 439/3/6 443/3/6
f 442/3/6 434/3/6 446/3/6
f 443/3/6 444/3/6 447/3/6
f 445/3/6 446/3/6 450/3/6
f 447/3/6 448/3/6 451/3/6
f 429/3/6 443/3/6 451/3/6
f 443/3/6 447/3/6 451/3/6
f 451/3/6 448/3/6 452/3/6
f 452/3/6 448/3/6 453/3/6
f 449/3/6 450/3/6 454/3/6
f 450/3/6 446/3/6 455/3/6
f 446/3/6 434/3/6 455/3/6
f 454/3/6 450/3/6 455/3/6
f 455/3/6 434/3/6 456/3/6
f 452/3/6 453/3/6 457/3/6
f 453/3/6 454/3/6 457/3/6
f 454/3/6 455/3/6 457/3/6
f 457/3/6 455/3/6 458/3/6
f 459/1/6 460/1/6 461/1/6
f 461/1/6 460/1/6 462/1/6
f 463/2/6 464/2/6 466/2/6
f 466/2/6 464/2/6 467/2/6
f 465/3/6 466/3/6 468/3/6
f 466/3/6 467/3/6 468/3/6
f 468/3/6 467/3/6 469/3/6
f 469/3/6 467/3/6 470/3/6
f 469/2/6 470/2/6 471/2/6
f 471/2/6 470/2/6 472/2/6
f 473/2/6 474/2/6 475/2/6
f 475/2/6 474/2/6 476/2/6
f 477/2/6 478/2/6 481/2/6
f 481/2/6 478/2/6 482/2/6
f 479/2/6 480/2/6 483/2/6
f 483/2/6 480/2/6 484/2/6
f 483/3/6 484/3/6 485/3/6
f 485/3/6 484/3/6 486/3/6
f 483/3/6 485/3/6 487/3/6
f 483/3/6 487/3/6 491/3/6
f 487/3/6 488/3/6 491/3/6
f 491/3/6 488/3/6 492/3/6
f 489/2/6 490/2/6 493/2/6
f 493/2/6 490/2/6 494/2/6
f 491/2/6 492/2/6 495/2/6
f 495/2/6 492/2/6 496/2/6
f 497/2/6 498/2/6 501/2/6
f 501/2/6 498/2/6 502/2/6
f 499/2/6 500/2/6 503/2/6
f 503/2/6 500/2/6 504/2/6
f 503/3/6 504/3/6 506/3/6
f 505/3/6 506/3/6 507/3/6
f 506/3/6 504/3/6 508/3/6
f 507/3/6 506/3/6 508/3/6
f 508/3/6 504/3/6 511/3/6
f 511/3/6 504/3/6 512/3/6
f 509/2/6 510/2/6 513/2/6
f 513/2/6 510/2/6 514/2/6
f 511/2/6 512/2/6 515/2/6
f 515/2/6 512/2/6 516/2/6
