# MagicaVoxel @ Ephtracy

# group
o 

# material
mtllib rocket.mtl
usemtl palette

# normals
vn -1 0 0
vn 1 0 0
vn 0 0 1
vn 0 0 -1
vn 0 -1 0
vn 0 1 0

# texcoords
vt 0.185547 0.5
vt 0.845703 0.5
vt 0.970703 0.5
vt 0.982422 0.5

# verts
v 1.1 2.2 -2
v 1.1 2.2 -2.1
v 1.1 2.3 -2
v 1.1 2.3 -2.1
v 1.2 2.1 -1.9
v 1.2 2.1 -2.2
v 1.2 2.2 -2
v 1.2 2.2 -2.1
v 1.2 2.3 -2
v 1.2 2.3 -2.1
v 1.2 2.4 -1.9
v 1.2 2.4 -2.2
v 1.4 2 -1.9
v 1.4 2 -2.2
v 1.4 2.1 -1.8
v 1.4 2.1 -1.9
v 1.4 2.1 -2.2
v 1.4 2.1 -2.3
v 1.4 2.4 -1.8
v 1.4 2.4 -1.9
v 1.4 2.4 -2.2
v 1.4 2.4 -2.3
v 1.4 2.5 -1.9
v 1.4 2.5 -2.2
v 2.4 2.2 -1.7
v 2.4 2.2 -1.8
v 2.4 2.2 -2.3
v 2.4 2.2 -2.4
v 2.4 2.3 -1.7
v 2.4 2.3 -1.8
v 2.4 2.3 -2.3
v 2.4 2.3 -2.4
v 2.4 2.5 -2
v 2.4 2.5 -2.1
v 2.4 2.6 -2
v 2.4 2.6 -2.1
v 2.6 2.2 -1.6
v 2.6 2.2 -1.7
v 2.6 2.2 -2.4
v 2.6 2.2 -2.5
v 2.6 2.3 -1.6
v 2.6 2.3 -1.7
v 2.6 2.3 -2.4
v 2.6 2.3 -2.5
v 2.6 2.6 -2
v 2.6 2.6 -2.1
v 2.6 2.7 -2
v 2.6 2.7 -2.1
v 2.7 2.1 -1.9
v 2.7 2.1 -2.2
v 2.7 2.4 -1.9
v 2.7 2.4 -2.2
v 2.4 2.2 -2
v 2.4 2.2 -2.1
v 2.4 2.3 -2
v 2.4 2.3 -2.1
v 2.5 2.1 -2
v 2.5 2.1 -2.1
v 2.5 2.2 -1.9
v 2.5 2.2 -2
v 2.5 2.2 -2.1
v 2.5 2.2 -2.2
v 2.5 2.3 -1.9
v 2.5 2.3 -2
v 2.5 2.3 -2.1
v 2.5 2.3 -2.2
v 2.5 2.4 -2
v 2.5 2.4 -2.1
v 2.6 2.1 -1.9
v 2.6 2.1 -2
v 2.6 2.1 -2.1
v 2.6 2.1 -2.2
v 2.6 2.2 -1.9
v 2.6 2.2 -2
v 2.6 2.2 -2.1
v 2.6 2.2 -2.2
v 2.6 2.3 -1.9
v 2.6 2.3 -2
v 2.6 2.3 -2.1
v 2.6 2.3 -2.2
v 2.6 2.4 -1.9
v 2.6 2.4 -2
v 2.6 2.4 -2.1
v 2.6 2.4 -2.2
v 2.8 2 -1.9
v 2.8 2 -2.2
v 2.8 2.1 -1.8
v 2.8 2.1 -1.9
v 2.8 2.1 -2.2
v 2.8 2.1 -2.3
v 2.8 2.2 -1.6
v 2.8 2.2 -1.8
v 2.8 2.2 -2.3
v 2.8 2.2 -2.5
v 2.8 2.3 -1.6
v 2.8 2.3 -1.8
v 2.8 2.3 -2.3
v 2.8 2.3 -2.5
v 2.8 2.4 -1.8
v 2.8 2.4 -1.9
v 2.8 2.4 -2.2
v 2.8 2.4 -2.3
v 2.8 2.5 -1.9
v 2.8 2.5 -2
v 2.8 2.5 -2.1
v 2.8 2.5 -2.2
v 2.8 2.7 -2
v 2.8 2.7 -2.1
v 2.6 2.2 -1.6
v 2.6 2.3 -1.6
v 2.8 2.2 -1.6
v 2.8 2.3 -1.6
v 2.4 2.2 -1.7
v 2.4 2.3 -1.7
v 2.6 2.2 -1.7
v 2.6 2.3 -1.7
v 1.4 2.1 -1.8
v 1.4 2.4 -1.8
v 1.5 2.1 -1.8
v 1.5 2.4 -1.8
v 2.4 2.2 -1.8
v 2.4 2.3 -1.8
v 2.8 2.1 -1.8
v 2.8 2.2 -1.8
v 2.8 2.3 -1.8
v 2.8 2.4 -1.8
v 1.2 2.1 -1.9
v 1.2 2.4 -1.9
v 1.4 2 -1.9
v 1.4 2.1 -1.9
v 1.4 2.4 -1.9
v 1.4 2.5 -1.9
v 1.5 2 -1.9
v 1.5 2.1 -1.9
v 1.5 2.4 -1.9
v 1.5 2.5 -1.9
v 2.8 2 -1.9
v 2.8 2.1 -1.9
v 2.8 2.4 -1.9
v 2.8 2.5 -1.9
v 1.1 2.2 -2
v 1.1 2.3 -2
v 1.2 2.2 -2
v 1.2 2.3 -2
v 2.4 2.5 -2
v 2.4 2.6 -2
v 2.6 2.6 -2
v 2.6 2.7 -2
v 2.8 2.5 -2
v 2.8 2.7 -2
v 2.4 2.2 -2.1
v 2.4 2.3 -2.1
v 2.5 2.1 -2.1
v 2.5 2.2 -2.1
v 2.5 2.3 -2.1
v 2.5 2.4 -2.1
v 2.6 2.1 -2.1
v 2.6 2.2 -2.1
v 2.6 2.3 -2.1
v 2.6 2.4 -2.1
v 2.5 2.2 -2.2
v 2.5 2.3 -2.2
v 2.6 2.1 -2.2
v 2.6 2.2 -2.2
v 2.6 2.3 -2.2
v 2.6 2.4 -2.2
v 2.7 2.1 -2.2
v 2.7 2.4 -2.2
v 2.5 2.2 -1.9
v 2.5 2.3 -1.9
v 2.6 2.1 -1.9
v 2.6 2.2 -1.9
v 2.6 2.3 -1.9
v 2.6 2.4 -1.9
v 2.7 2.1 -1.9
v 2.7 2.4 -1.9
v 2.4 2.2 -2
v 2.4 2.3 -2
v 2.5 2.1 -2
v 2.5 2.2 -2
v 2.5 2.3 -2
v 2.5 2.4 -2
v 2.6 2.1 -2
v 2.6 2.2 -2
v 2.6 2.3 -2
v 2.6 2.4 -2
v 1.1 2.2 -2.1
v 1.1 2.3 -2.1
v 1.2 2.2 -2.1
v 1.2 2.3 -2.1
v 2.4 2.5 -2.1
v 2.4 2.6 -2.1
v 2.6 2.6 -2.1
v 2.6 2.7 -2.1
v 2.8 2.5 -2.1
v 2.8 2.7 -2.1
v 1.2 2.1 -2.2
v 1.2 2.4 -2.2
v 1.4 2 -2.2
v 1.4 2.1 -2.2
v 1.4 2.4 -2.2
v 1.4 2.5 -2.2
v 1.5 2 -2.2
v 1.5 2.1 -2.2
v 1.5 2.4 -2.2
v 1.5 2.5 -2.2
v 2.8 2 -2.2
v 2.8 2.1 -2.2
v 2.8 2.4 -2.2
v 2.8 2.5 -2.2
v 1.4 2.1 -2.3
v 1.4 2.4 -2.3
v 1.5 2.1 -2.3
v 1.5 2.4 -2.3
v 2.4 2.2 -2.3
v 2.4 2.3 -2.3
v 2.8 2.1 -2.3
v 2.8 2.2 -2.3
v 2.8 2.3 -2.3
v 2.8 2.4 -2.3
v 2.4 2.2 -2.4
v 2.4 2.3 -2.4
v 2.6 2.2 -2.4
v 2.6 2.3 -2.4
v 2.6 2.2 -2.5
v 2.6 2.3 -2.5
v 2.8 2.2 -2.5
v 2.8 2.3 -2.5
v 1.4 2 -1.9
v 1.5 2 -1.9
v 2.8 2 -1.9
v 1.4 2 -2.2
v 1.5 2 -2.2
v 2.8 2 -2.2
v 1.4 2.1 -1.8
v 1.5 2.1 -1.8
v 2.8 2.1 -1.8
v 1.2 2.1 -1.9
v 1.4 2.1 -1.9
v 1.5 2.1 -1.9
v 2.8 2.1 -1.9
v 1.2 2.1 -2.2
v 1.4 2.1 -2.2
v 1.5 2.1 -2.2
v 2.8 2.1 -2.2
v 1.4 2.1 -2.3
v 1.5 2.1 -2.3
v 2.8 2.1 -2.3
v 2.6 2.2 -1.6
v 2.8 2.2 -1.6
v 2.4 2.2 -1.7
v 2.6 2.2 -1.7
v 2.4 2.2 -1.8
v 2.8 2.2 -1.8
v 1.1 2.2 -2
v 1.2 2.2 -2
v 1.1 2.2 -2.1
v 1.2 2.2 -2.1
v 2.4 2.2 -2.3
v 2.8 2.2 -2.3
v 2.4 2.2 -2.4
v 2.6 2.2 -2.4
v 2.6 2.2 -2.5
v 2.8 2.2 -2.5
v 2.5 2.3 -1.9
v 2.6 2.3 -1.9
v 2.4 2.3 -2
v 2.5 2.3 -2
v 2.6 2.3 -2
v 2.4 2.3 -2.1
v 2.5 2.3 -2.1
v 2.6 2.3 -2.1
v 2.5 2.3 -2.2
v 2.6 2.3 -2.2
v 2.6 2.4 -1.9
v 2.7 2.4 -1.9
v 2.5 2.4 -2
v 2.6 2.4 -2
v 2.5 2.4 -2.1
v 2.6 2.4 -2.1
v 2.6 2.4 -2.2
v 2.7 2.4 -2.2
v 2.6 2.1 -1.9
v 2.7 2.1 -1.9
v 2.5 2.1 -2
v 2.6 2.1 -2
v 2.5 2.1 -2.1
v 2.6 2.1 -2.1
v 2.6 2.1 -2.2
v 2.7 2.1 -2.2
v 2.5 2.2 -1.9
v 2.6 2.2 -1.9
v 2.4 2.2 -2
v 2.5 2.2 -2
v 2.6 2.2 -2
v 2.4 2.2 -2.1
v 2.5 2.2 -2.1
v 2.6 2.2 -2.1
v 2.5 2.2 -2.2
v 2.6 2.2 -2.2
v 2.6 2.3 -1.6
v 2.8 2.3 -1.6
v 2.4 2.3 -1.7
v 2.6 2.3 -1.7
v 2.4 2.3 -1.8
v 2.8 2.3 -1.8
v 1.1 2.3 -2
v 1.2 2.3 -2
v 1.1 2.3 -2.1
v 1.2 2.3 -2.1
v 2.4 2.3 -2.3
v 2.8 2.3 -2.3
v 2.4 2.3 -2.4
v 2.6 2.3 -2.4
v 2.6 2.3 -2.5
v 2.8 2.3 -2.5
v 1.4 2.4 -1.8
v 1.5 2.4 -1.8
v 2.8 2.4 -1.8
v 1.2 2.4 -1.9
v 1.4 2.4 -1.9
v 1.5 2.4 -1.9
v 2.8 2.4 -1.9
v 1.2 2.4 -2.2
v 1.4 2.4 -2.2
v 1.5 2.4 -2.2
v 2.8 2.4 -2.2
v 1.4 2.4 -2.3
v 1.5 2.4 -2.3
v 2.8 2.4 -2.3
v 1.4 2.5 -1.9
v 1.5 2.5 -1.9
v 2.8 2.5 -1.9
v 2.4 2.5 -2
v 2.8 2.5 -2
v 2.4 2.5 -2.1
v 2.8 2.5 -2.1
v 1.4 2.5 -2.2
v 1.5 2.5 -2.2
v 2.8 2.5 -2.2
v 2.4 2.6 -2
v 2.6 2.6 -2
v 2.4 2.6 -2.1
v 2.6 2.6 -2.1
v 2.6 2.7 -2
v 2.8 2.7 -2
v 2.6 2.7 -2.1
v 2.8 2.7 -2.1

# faces
f 3/2/1 2/2/1 1/2/1
f 4/2/1 2/2/1 3/2/1
f 7/2/1 6/2/1 5/2/1
f 8/2/1 6/2/1 7/2/1
f 9/2/1 7/2/1 5/2/1
f 10/2/1 6/2/1 8/2/1
f 11/2/1 9/2/1 5/2/1
f 11/2/1 10/2/1 9/2/1
f 12/2/1 6/2/1 10/2/1
f 12/2/1 10/2/1 11/2/1
f 16/2/1 14/2/1 13/2/1
f 17/2/1 14/2/1 16/2/1
f 19/2/1 16/2/1 15/2/1
f 20/2/1 16/2/1 19/2/1
f 21/2/1 18/2/1 17/2/1
f 22/2/1 18/2/1 21/2/1
f 23/2/1 21/2/1 20/2/1
f 24/2/1 21/2/1 23/2/1
f 29/3/1 26/3/1 25/3/1
f 30/3/1 26/3/1 29/3/1
f 31/3/1 28/3/1 27/3/1
f 32/3/1 28/3/1 31/3/1
f 35/3/1 34/3/1 33/3/1
f 36/3/1 34/3/1 35/3/1
f 41/3/1 38/3/1 37/3/1
f 42/3/1 38/3/1 41/3/1
f 43/3/1 40/3/1 39/3/1
f 44/3/1 40/3/1 43/3/1
f 47/3/1 46/3/1 45/3/1
f 48/3/1 46/3/1 47/3/1
f 51/1/1 50/1/1 49/1/1
f 52/1/1 50/1/1 51/1/1
f 53/4/2 54/4/2 55/4/2
f 55/4/2 54/4/2 56/4/2
f 57/4/2 58/4/2 60/4/2
f 60/4/2 58/4/2 61/4/2
f 59/4/2 60/4/2 63/4/2
f 63/4/2 60/4/2 64/4/2
f 61/4/2 62/4/2 65/4/2
f 65/4/2 62/4/2 66/4/2
f 64/4/2 65/4/2 67/4/2
f 67/4/2 65/4/2 68/4/2
f 69/4/2 70/4/2 73/4/2
f 73/4/2 70/4/2 74/4/2
f 71/4/2 72/4/2 75/4/2
f 75/4/2 72/4/2 76/4/2
f 77/4/2 78/4/2 81/4/2
f 81/4/2 78/4/2 82/4/2
f 79/4/2 80/4/2 83/4/2
f 83/4/2 80/4/2 84/4/2
f 85/4/2 86/4/2 88/4/2
f 88/4/2 86/4/2 89/4/2
f 87/4/2 88/4/2 92/4/2
f 89/4/2 90/4/2 93/4/2
f 91/3/2 92/3/2 95/3/2
f 92/4/2 88/4/2 96/4/2
f 95/3/2 92/3/2 96/3/2
f 93/3/2 94/3/2 97/3/2
f 89/4/2 93/4/2 97/4/2
f 97/3/2 94/3/2 98/3/2
f 96/4/2 88/4/2 99/4/2
f 88/1/2 89/1/2 100/1/2
f 99/4/2 88/4/2 100/4/2
f 89/4/2 97/4/2 101/4/2
f 100/1/2 89/1/2 101/1/2
f 101/4/2 97/4/2 102/4/2
f 100/4/2 101/4/2 103/4/2
f 103/4/2 101/4/2 104/4/2
f 104/4/2 101/4/2 105/4/2
f 105/4/2 101/4/2 106/4/2
f 104/3/2 105/3/2 107/3/2
f 107/3/2 105/3/2 108/3/2
f 111/3/3 110/3/3 109/3/3
f 112/3/3 110/3/3 111/3/3
f 115/3/3 114/3/3 113/3/3
f 116/3/3 114/3/3 115/3/3
f 119/2/3 118/2/3 117/2/3
f 120/2/3 118/2/3 119/2/3
f 121/4/3 120/4/3 119/4/3
f 122/4/3 120/4/3 121/4/3
f 123/4/3 121/4/3 119/4/3
f 124/4/3 121/4/3 123/4/3
f 125/4/3 120/4/3 122/4/3
f 126/4/3 120/4/3 125/4/3
f 130/2/3 128/2/3 127/2/3
f 131/2/3 128/2/3 130/2/3
f 133/2/3 130/2/3 129/2/3
f 134/2/3 130/2/3 133/2/3
f 135/2/3 132/2/3 131/2/3
f 136/2/3 132/2/3 135/2/3
f 137/4/3 134/4/3 133/4/3
f 138/4/3 134/4/3 137/4/3
f 139/4/3 136/4/3 135/4/3
f 140/4/3 136/4/3 139/4/3
f 143/2/3 142/2/3 141/2/3
f 144/2/3 142/2/3 143/2/3
f 147/3/3 146/3/3 145/3/3
f 149/3/3 147/3/3 145/3/3
f 149/3/3 148/3/3 147/3/3
f 150/3/3 148/3/3 149/3/3
f 154/4/3 152/4/3 151/4/3
f 155/4/3 152/4/3 154/4/3
f 157/4/3 154/4/3 153/4/3
f 158/4/3 154/4/3 157/4/3
f 159/4/3 156/4/3 155/4/3
f 160/4/3 156/4/3 159/4/3
f 164/4/3 162/4/3 161/4/3
f 165/4/3 162/4/3 164/4/3
f 167/4/3 164/4/3 163/4/3
f 167/4/3 166/4/3 165/4/3
f 167/4/3 165/4/3 164/4/3
f 168/4/3 166/4/3 167/4/3
f 169/4/4 170/4/4 172/4/4
f 172/4/4 170/4/4 173/4/4
f 171/4/4 172/4/4 175/4/4
f 173/4/4 174/4/4 175/4/4
f 172/4/4 173/4/4 175/4/4
f 175/4/4 174/4/4 176/4/4
f 177/4/4 178/4/4 180/4/4
f 180/4/4 178/4/4 181/4/4
f 179/4/4 180/4/4 183/4/4
f 183/4/4 180/4/4 184/4/4
f 181/4/4 182/4/4 185/4/4
f 185/4/4 182/4/4 186/4/4
f 187/2/4 188/2/4 189/2/4
f 189/2/4 188/2/4 190/2/4
f 191/3/4 192/3/4 193/3/4
f 191/3/4 193/3/4 195/3/4
f 193/3/4 194/3/4 195/3/4
f 195/3/4 194/3/4 196/3/4
f 197/2/4 198/2/4 200/2/4
f 200/2/4 198/2/4 201/2/4
f 199/2/4 200/2/4 203/2/4
f 203/2/4 200/2/4 204/2/4
f 201/2/4 202/2/4 205/2/4
f 205/2/4 202/2/4 206/2/4
f 203/4/4 204/4/4 207/4/4
f 207/4/4 204/4/4 208/4/4
f 205/4/4 206/4/4 209/4/4
f 209/4/4 206/4/4 210/4/4
f 211/2/4 212/2/4 213/2/4
f 213/2/4 212/2/4 214/2/4
f 213/4/4 214/4/4 215/4/4
f 215/4/4 214/4/4 216/4/4
f 213/4/4 215/4/4 217/4/4
f 217/4/4 215/4/4 218/4/4
f 216/4/4 214/4/4 219/4/4
f 219/4/4 214/4/4 220/4/4
f 221/3/4 222/3/4 223/3/4
f 223/3/4 222/3/4 224/3/4
f 225/3/4 226/3/4 227/3/4
f 227/3/4 226/3/4 228/3/4
f 232/2/5 230/2/5 229/2/5
f 233/4/5 231/4/5 230/4/5
f 233/2/5 230/2/5 232/2/5
f 234/4/5 231/4/5 233/4/5
f 239/2/5 236/2/5 235/2/5
f 240/4/5 237/4/5 236/4/5
f 240/2/5 236/2/5 239/2/5
f 241/4/5 237/4/5 240/4/5
f 242/2/5 239/2/5 238/2/5
f 243/2/5 239/2/5 242/2/5
f 246/2/5 244/2/5 243/2/5
f 247/4/5 245/4/5 244/4/5
f 247/2/5 244/2/5 246/2/5
f 248/4/5 245/4/5 247/4/5
f 252/3/5 250/3/5 249/3/5
f 253/3/5 252/3/5 251/3/5
f 254/3/5 250/3/5 252/3/5
f 254/3/5 252/3/5 253/3/5
f 257/2/5 256/2/5 255/2/5
f 258/2/5 256/2/5 257/2/5
f 261/3/5 260/3/5 259/3/5
f 262/3/5 260/3/5 261/3/5
f 263/3/5 260/3/5 262/3/5
f 264/3/5 260/3/5 263/3/5
f 268/4/5 266/4/5 265/4/5
f 269/4/5 266/4/5 268/4/5
f 270/4/5 268/4/5 267/4/5
f 271/4/5 268/4/5 270/4/5
f 273/4/5 272/4/5 271/4/5
f 274/4/5 272/4/5 273/4/5
f 278/4/5 276/4/5 275/4/5
f 279/4/5 278/4/5 277/4/5
f 280/4/5 276/4/5 278/4/5
f 280/4/5 278/4/5 279/4/5
f 281/4/5 276/4/5 280/4/5
f 282/4/5 276/4/5 281/4/5
f 283/4/6 284/4/6 286/4/6
f 285/4/6 286/4/6 287/4/6
f 286/4/6 284/4/6 288/4/6
f 287/4/6 286/4/6 288/4/6
f 288/4/6 284/4/6 289/4/6
f 289/4/6 284/4/6 290/4/6
f 291/4/6 292/4/6 294/4/6
f 294/4/6 292/4/6 295/4/6
f 293/4/6 294/4/6 296/4/6
f 296/4/6 294/4/6 297/4/6
f 297/4/6 298/4/6 299/4/6
f 299/4/6 298/4/6 300/4/6
f 301/3/6 302/3/6 304/3/6
f 303/3/6 304/3/6 305/3/6
f 304/3/6 302/3/6 306/3/6
f 305/3/6 304/3/6 306/3/6
f 307/2/6 308/2/6 309/2/6
f 309/2/6 308/2/6 310/2/6
f 311/3/6 312/3/6 313/3/6
f 313/3/6 312/3/6 314/3/6
f 314/3/6 312/3/6 315/3/6
f 315/3/6 312/3/6 316/3/6
f 317/2/6 318/2/6 321/2/6
f 318/4/6 319/4/6 322/4/6
f 321/2/6 318/2/6 322/2/6
f 322/4/6 319/4/6 323/4/6
f 320/2/6 321/2/6 324/2/6
f 324/2/6 321/2/6 325/2/6
f 325/2/6 326/2/6 328/2/6
f 326/4/6 327/4/6 329/4/6
f 328/2/6 326/2/6 329/2/6
f 329/4/6 327/4/6 330/4/6
f 332/4/6 333/4/6 334/4/6
f 334/4/6 333/4/6 335/4/6
f 332/4/6 334/4/6 336/4/6
f 331/2/6 332/2/6 338/2/6
f 336/4/6 337/4/6 339/4/6
f 338/2/6 332/2/6 339/2/6
f 332/4/6 336/4/6 339/4/6
f 339/4/6 337/4/6 340/4/6
f 341/3/6 342/3/6 343/3/6
f 343/3/6 342/3/6 344/3/6
f 345/3/6 346/3/6 347/3/6
f 347/3/6 346/3/6 348/3/6
